<svg width="40" height="40" viewBox="0 0 40 40" fill="none" xmlns="http://www.w3.org/2000/svg">
<g clip-path="url(#clip0_42_14)">
<path d="M37.1144 29.9437C37.3925 29.4615 37.5647 28.9187 37.5647 28.4303V11.4937C37.5647 11.0068 37.3928 10.4634 37.1144 9.9812L19.8269 19.9625L37.1144 29.9437Z" fill="#00599C"/>
<path d="M21.3625 39.5581L36.0291 31.0913C36.4516 30.8472 36.8359 30.426 37.1144 29.9438L19.8269 19.9625L2.53751 29.9438C2.81563 30.426 3.20032 30.8469 3.62282 31.0913L18.2894 39.5581C19.1341 40.0463 20.5175 40.0463 21.3619 39.5581H21.3625Z" fill="#004482"/>
<path d="M37.1144 9.98152C36.8359 9.49839 36.4516 9.07714 36.0291 8.83433L21.3622 0.366206C20.5175 -0.122231 19.1344 -0.122231 18.2897 0.366206L3.62312 8.83433C2.77812 9.32121 2.08749 10.5187 2.08749 11.4937V28.43C2.08749 28.9181 2.25937 29.4612 2.53781 29.9434L19.8266 19.9625L37.1144 9.98152Z" fill="#659AD2"/>
<path d="M19.8265 8.13593C13.3056 8.13593 8.00061 13.4412 8.00061 19.9622C8.00061 26.4831 13.3056 31.7884 19.8265 31.7884C24.0344 31.7884 27.959 29.5237 30.0672 25.8791L24.95 22.9172C23.8937 24.7422 21.9312 25.875 19.8265 25.875C16.5662 25.875 13.9134 23.2225 13.9134 19.9619C13.9134 16.7012 16.5665 14.0487 19.8265 14.0487C21.9297 14.0487 23.8944 15.1828 24.9484 17.0066L30.0672 14.045C27.9578 10.4 24.0344 8.13593 19.8265 8.13593ZM29.025 17.9906V19.3053H27.7103V20.6187H29.025V21.9334H30.3384V20.6187H31.6519V19.3053H30.3384V17.9906H29.025ZM33.9519 17.9906V19.3053H32.6381V20.6187H33.9519V21.9334H35.2665V20.6187H36.58V19.3053H35.2665V17.9906H33.9519Z" fill="white"/>
</g>
<defs>
<clipPath id="clip0_42_14">
<rect width="40" height="40" fill="white"/>
</clipPath>
</defs>
</svg>
