<svg width="24" height="20" viewBox="0 0 24 20" fill="currentColor" xmlns="http://www.w3.org/2000/svg">
<path d="M21.6 0H2.4C1.08 0 0 1.08 0 2.4V16.8C0 18.12 1.08 19.2 2.4 19.2H21.6C22.92 19.2 24 18.12 24 16.8V2.4C24 1.08 22.92 0 21.6 0ZM21.12 5.1L13.272 10.008C12.492 10.5 11.508 10.5 10.728 10.008L2.88 5.1C2.75967 5.03245 2.6543 4.94119 2.57027 4.83174C2.48623 4.7223 2.42527 4.59693 2.39109 4.46325C2.35691 4.32956 2.3502 4.19032 2.37139 4.05397C2.39257 3.91761 2.4412 3.78698 2.51434 3.66996C2.58747 3.55295 2.68359 3.45199 2.79687 3.37319C2.91015 3.2944 3.03825 3.23941 3.17339 3.21156C3.30854 3.1837 3.44794 3.18356 3.58315 3.21114C3.71835 3.23872 3.84656 3.29344 3.96 3.372L12 8.4L20.04 3.372C20.1534 3.29344 20.2816 3.23872 20.4169 3.21114C20.5521 3.18356 20.6915 3.1837 20.8266 3.21156C20.9618 3.23941 21.0898 3.2944 21.2031 3.37319C21.3164 3.45199 21.4125 3.55295 21.4857 3.66996C21.5588 3.78698 21.6074 3.91761 21.6286 4.05397C21.6498 4.19032 21.6431 4.32956 21.6089 4.46325C21.5747 4.59693 21.5138 4.7223 21.4297 4.83174C21.3457 4.94119 21.2403 5.03245 21.12 5.1Z"/>
</svg>
