<svg width="40" height="40" viewBox="0 0 40 40" fill="none" xmlns="http://www.w3.org/2000/svg">
<g clip-path="url(#clip0_32_180)">
<path d="M30.625 0H9.375C4.19733 0 0 4.19733 0 9.375V30.625C0 35.8027 4.19733 40 9.375 40H30.625C35.8027 40 40 35.8027 40 30.625V9.375C40 4.19733 35.8027 0 30.625 0Z" fill="#00B4E0"/>
<path d="M6.32812 17.6929C6.26562 17.6929 6.25 17.6616 6.28125 17.6147L6.60938 17.1929C6.64062 17.146 6.71875 17.1147 6.78125 17.1147H12.3594C12.4219 17.1147 12.4375 17.1616 12.4062 17.2085L12.1406 17.6147C12.1094 17.6616 12.0312 17.7085 11.9844 17.7085L6.32812 17.6929ZM3.96875 19.1304C3.90625 19.1304 3.89063 19.0991 3.92188 19.0522L4.25 18.6304C4.28125 18.5835 4.35937 18.5522 4.42187 18.5522H11.5469C11.6094 18.5522 11.6406 18.5991 11.625 18.646L11.5 19.021C11.4844 19.0835 11.4219 19.1147 11.3594 19.1147L3.96875 19.1304ZM7.75 20.5679C7.6875 20.5679 7.67187 20.521 7.70312 20.4741L7.92188 20.0835C7.95312 20.0366 8.01562 19.9897 8.07812 19.9897H11.2031C11.2656 19.9897 11.2969 20.0366 11.2969 20.0991L11.2656 20.4741C11.2656 20.5366 11.2031 20.5835 11.1562 20.5835L7.75 20.5679ZM23.9688 17.4116C22.9844 17.6616 22.3125 17.8491 21.3438 18.0991C21.1094 18.1616 21.0938 18.1772 20.8906 17.9429C20.6562 17.6772 20.4844 17.5054 20.1562 17.3491C19.1719 16.8647 18.2188 17.0054 17.3281 17.5835C16.2656 18.271 15.7187 19.2866 15.7344 20.5522C15.75 21.8022 16.6094 22.8335 17.8438 23.0054C18.9062 23.146 19.7969 22.771 20.5 21.9741C20.6406 21.8022 20.7656 21.6147 20.9219 21.396H17.9062C17.5781 21.396 17.5 21.1929 17.6094 20.9272C17.8125 20.4429 18.1875 19.6304 18.4062 19.2241C18.4531 19.1304 18.5625 18.9741 18.7969 18.9741H24.4844C24.4531 19.396 24.4531 19.8179 24.3906 20.2397C24.2188 21.3647 23.7969 22.396 23.1094 23.3022C21.9844 24.7866 20.5156 25.7085 18.6562 25.9585C17.125 26.1616 15.7031 25.8647 14.4531 24.9272C13.2969 24.0522 12.6406 22.896 12.4688 21.4585C12.2656 19.7554 12.7656 18.2241 13.7969 16.8804C14.9062 15.4272 16.375 14.5054 18.1719 14.1772C19.6406 13.9116 21.0469 14.0835 22.3125 14.9429C23.1406 15.4897 23.7344 16.2397 24.125 17.146C24.2188 17.2866 24.1562 17.3647 23.9688 17.4116Z" fill="white"/>
<path d="M29.1406 26.0522C27.7188 26.021 26.4219 25.6147 25.3281 24.6772C24.4063 23.8803 23.8281 22.8647 23.6406 21.6616C23.3594 19.896 23.8438 18.3335 24.9063 16.9428C26.0469 15.4428 27.4219 14.6616 29.2813 14.3335C30.875 14.0522 32.375 14.2085 33.7344 15.1303C34.9688 15.9741 35.7344 17.1147 35.9375 18.6147C36.2031 20.7241 35.5938 22.4428 34.1406 23.9116C33.1094 24.9585 31.8438 25.6147 30.3906 25.9116C29.9688 25.9897 29.5469 26.0053 29.1406 26.0522ZM32.8594 19.7397C32.8438 19.5366 32.8438 19.3803 32.8125 19.2241C32.5313 17.6772 31.1094 16.8022 29.625 17.146C28.1719 17.4741 27.2344 18.396 26.8906 19.8647C26.6094 21.0835 27.2031 22.3178 28.3281 22.8178C29.1875 23.1928 30.0469 23.146 30.875 22.7241C32.1094 22.0835 32.7813 21.0835 32.8594 19.7397Z" fill="white"/>
</g>
<defs>
<clipPath id="clip0_32_180">
<rect width="40" height="40" fill="white"/>
</clipPath>
</defs>
</svg>
