<svg width="40" height="40" viewBox="0 0 40 40" fill="none" xmlns="http://www.w3.org/2000/svg">
<g clip-path="url(#clip0_33_274)">
<path d="M40.215 39.02L39.3683 38.2133C38.9646 37.6786 38.5133 37.1816 38.02 36.7283L38.0117 36.7216C37.5139 36.2694 36.9967 35.8394 36.46 35.4316C36.03 35.1361 35.4389 34.78 34.6867 34.3633C34.0763 34.0924 33.5898 33.6023 33.3233 32.99L33.3167 32.9733L33.2367 32.9333C33.59 32.8983 33.9133 32.8333 34.2233 32.7416L34.185 32.7516L35.135 32.49C35.5283 32.3666 35.9833 32.2866 36.455 32.2683H36.465C36.9617 32.2483 37.43 32.1683 37.8767 32.0366L37.835 32.0466C38.0506 31.9933 38.2722 31.9327 38.5 31.865C38.7278 31.7972 38.9228 31.7366 39.085 31.6833V31.4016C38.9239 31.1605 38.7289 30.885 38.5 30.575C38.2877 30.2849 38.0396 30.0228 37.7617 29.795L37.7533 29.7883C37.0544 29.1705 36.3306 28.5727 35.5817 27.995C34.8796 27.4495 34.1503 26.9399 33.3967 26.4683L33.2833 26.4016C32.8487 26.1175 32.3883 25.8748 31.9083 25.6766L31.8517 25.6566C31.3539 25.4544 30.8633 25.2327 30.38 24.9916C30.2059 24.9064 30.0232 24.8399 29.835 24.7933L29.8167 24.79C29.6287 24.7526 29.4585 24.6534 29.3333 24.5083L29.3317 24.5066C29.0952 24.1927 28.8966 23.852 28.74 23.4916L28.7267 23.4583C28.5656 23.0816 28.3911 22.72 28.2033 22.3733C27.8 21.5933 27.41 20.8005 27.0333 19.995C26.6567 19.1894 26.295 18.3827 25.9483 17.575C25.7072 17.0372 25.4856 16.5 25.2833 15.9633C25.0788 15.4163 24.8215 14.8904 24.515 14.3933L24.5367 14.4316C23.8725 13.2929 23.1313 12.201 22.3183 11.1633L22.365 11.2266C21.6211 10.2844 20.8083 9.39864 19.9333 8.57663L19.92 8.56496C19.0596 7.75767 18.1512 7.00297 17.2 6.30497L17.1183 6.24663C16.1228 5.5233 15.0339 4.81108 13.8517 4.10997C13.3491 3.81686 12.8077 3.59634 12.2433 3.45497L12.2 3.44497L10.345 2.98163L9.29666 2.90163C8.94777 2.87497 8.59833 2.86163 8.24833 2.86163C8.0123 2.7381 7.79511 2.58153 7.60333 2.39663C7.41796 2.2203 7.22144 2.05607 7.015 1.90497L6.99833 1.8933C5.9157 1.26857 4.77544 0.749507 3.59333 0.343299L3.45166 0.299965C3.15767 0.131768 2.82962 0.0318535 2.49178 0.00761938C2.15394 -0.0166148 1.81498 0.0354522 1.5 0.159965L1.515 0.154965C1.20482 0.276602 0.925279 0.46512 0.696262 0.7071C0.467245 0.94908 0.294389 1.23857 0.189997 1.55497L0.184997 1.57163C0.0081354 1.99635 -0.0493256 2.46132 0.0188208 2.91631C0.0869673 3.37131 0.278131 3.79904 0.571664 4.1533L0.568331 4.1483C1.17278 4.95385 1.63611 5.58719 1.95833 6.0483C2.19944 6.37163 2.44833 6.70774 2.705 7.05663C2.94 7.36997 3.14833 7.7283 3.31666 8.10663L3.33 8.14163C3.42333 8.33996 3.505 8.57663 3.565 8.81996L3.57 8.84663C3.62333 9.07552 3.69055 9.32441 3.77166 9.5933C4.01277 10.2111 4.24111 10.8444 4.45666 11.4933C4.69166 12.2016 4.95166 12.8016 5.25333 13.3733L5.22166 13.3066C5.38277 13.6022 5.54444 13.8911 5.70666 14.1733C5.86889 14.4555 6.04333 14.7311 6.23 15C6.33585 15.1597 6.47239 15.2968 6.63166 15.4033L6.63666 15.4066C6.72013 15.4665 6.78887 15.5446 6.83767 15.635C6.88647 15.7254 6.91405 15.8257 6.91833 15.9283C6.72169 16.2204 6.59769 16.5569 6.55666 16.9066L6.555 16.9166C6.50271 17.3092 6.41741 17.6967 6.3 18.075L6.31333 18.025C5.92127 19.2253 5.72378 20.4806 5.72833 21.7433C5.72833 22.1733 5.75 22.5966 5.795 23.015L5.79 22.9633C5.89 24.56 6.37166 26.0266 7.14333 27.2966L7.12 27.255C7.44833 27.7466 7.8 28.175 8.18833 28.5666C8.41393 28.8204 8.71784 28.9915 9.05181 29.0528C9.38578 29.1141 9.73065 29.0621 10.0317 28.905L10.0233 28.9083C10.3121 28.8065 10.5641 28.6211 10.7473 28.3756C10.9304 28.1302 11.0363 27.8358 11.0517 27.53V27.5266C11.1317 26.7366 11.2517 26.03 11.4167 25.34L11.395 25.4516C11.4372 25.3392 11.4587 25.2201 11.4583 25.1L11.455 25.025V25.0283C11.4417 24.9072 11.5156 24.7927 11.6767 24.685V24.765C11.8378 25.1416 12.0056 25.5177 12.18 25.8933C12.3544 26.2689 12.5356 26.645 12.7233 27.0216C13.215 27.77 13.7367 28.4233 14.31 29.025L14.305 29.02C14.8753 29.6359 15.5044 30.1946 16.1833 30.6883L16.22 30.7133C16.5733 30.9833 16.8833 31.275 17.1633 31.5933L17.17 31.6C17.4333 31.91 17.7483 32.165 18.1033 32.3566L18.12 32.365V32.325H18.2C18.1368 32.1834 18.0322 32.0643 17.9 31.9833L17.8967 31.9816C17.7744 31.9142 17.6569 31.8385 17.545 31.755L17.5533 31.76C17.3122 31.5189 17.0633 31.25 16.8067 30.9533C16.55 30.6566 16.315 30.3744 16.1017 30.1066C15.5372 29.3266 14.9989 28.5116 14.4867 27.6616C13.9744 26.8116 13.4906 25.9477 13.035 25.07C12.8194 24.64 12.6111 24.1966 12.41 23.74C12.2089 23.2833 12.0139 22.84 11.825 22.41C11.7395 22.2352 11.6853 22.0468 11.665 21.8533V21.845C11.6605 21.7534 11.6323 21.6646 11.5833 21.5872C11.5342 21.5098 11.4659 21.4464 11.385 21.4033L11.3817 21.4016C11.1908 21.7297 10.9627 22.0345 10.7017 22.31L10.7033 22.3083C10.4356 22.5904 10.2201 22.9176 10.0667 23.275L10.0583 23.2966C9.80886 23.9121 9.64673 24.5595 9.57666 25.22L9.57333 25.2516C9.49333 25.9639 9.41278 26.6961 9.33166 27.4483L9.25166 27.4883L9.21166 27.5283C9.00303 27.4865 8.80642 27.3984 8.63626 27.2707C8.4661 27.1429 8.32671 26.9786 8.22833 26.79L8.225 26.7816C8.02277 26.3916 7.84166 26.0083 7.68166 25.6316C7.24506 24.4893 7.00664 23.2808 6.97666 22.0583V22.0433C6.8901 20.737 7.05184 19.4261 7.45333 18.18L7.43333 18.2533C7.51333 17.9577 7.68778 17.46 7.95666 16.76C8.22555 16.06 8.27944 15.5761 8.11833 15.3083C8.03883 15.0433 7.88566 14.8063 7.67666 14.625L7.675 14.6233C7.47579 14.4508 7.2892 14.2642 7.11666 14.065L7.11166 14.0583C6.92389 13.7872 6.74277 13.4983 6.56833 13.1916C6.39389 12.885 6.23944 12.5827 6.105 12.285C5.79465 11.5506 5.53079 10.7975 5.315 10.03L5.27833 9.88163C5.04119 9.02405 4.73692 8.18646 4.36833 7.37663L4.41166 7.4833C4.23923 7.08755 4.02108 6.71334 3.76166 6.3683L3.77166 6.38163C3.50055 6.01941 3.25833 5.67663 3.045 5.3533C2.77389 5.00441 2.505 4.6683 2.23833 4.34497C1.96045 4.0084 1.72222 3.64099 1.52833 3.24997L1.51333 3.21663C1.42806 3.04252 1.36157 2.85983 1.315 2.67163L1.31166 2.6533C1.28303 2.55862 1.2755 2.45881 1.28961 2.3609C1.30372 2.263 1.33913 2.16938 1.39333 2.08663L1.39166 2.08997C1.40948 1.99984 1.45155 1.91629 1.51333 1.8483C1.58081 1.78799 1.66303 1.74659 1.75166 1.7283H1.755C1.88649 1.64302 2.03766 1.59287 2.19406 1.58266C2.35046 1.57245 2.50686 1.60251 2.64833 1.66997L2.64333 1.6683C3.00833 1.77163 3.30333 1.87497 3.59166 1.9933L3.53166 1.97163C4.04166 2.18719 4.51222 2.39552 4.94333 2.59663C5.44 2.8333 5.86333 3.0833 6.26333 3.36163L6.23333 3.34163C6.44889 3.47608 6.66389 3.62385 6.87833 3.78497C7.09277 3.94608 7.32111 4.10774 7.56333 4.26997H8.12833C8.55833 4.26997 9.015 4.29052 9.49833 4.33163C9.98666 4.36997 10.4383 4.46163 10.8683 4.60497L10.8283 4.5933C11.63 4.83163 12.3183 5.1133 12.9717 5.45163L12.9033 5.41997C13.5622 5.75552 14.1872 6.11163 14.7783 6.4883C15.76 7.09997 16.6083 7.72663 17.4067 8.41163L17.3783 8.3883C18.2117 9.10163 18.9683 9.8333 19.6783 10.6066L19.695 10.6266C20.3883 11.3833 21.05 12.205 21.655 13.0666L21.7067 13.145C22.2633 13.9316 22.825 14.8416 23.33 15.785L23.4 15.9266C23.5488 16.2158 23.6791 16.5142 23.79 16.82L23.8083 16.875C23.9161 17.1839 24.0367 17.5005 24.17 17.825C24.4656 18.4972 24.7822 19.1755 25.12 19.86C25.4578 20.5444 25.7744 21.21 26.07 21.8566L26.9567 23.7916C27.2683 24.4683 27.6167 25.0516 28.0217 25.59L28.0033 25.565C28.3417 25.9266 28.7933 26.18 29.3 26.2683L29.3133 26.27C29.9267 26.4233 30.4433 26.5966 30.9433 26.8016L30.865 26.7733C31.1033 26.8816 31.41 26.9966 31.725 27.0983L31.7917 27.1166C32.145 27.225 32.4517 27.3683 32.7333 27.5483L32.7183 27.54C33.2633 27.845 33.725 28.145 34.165 28.4716L34.13 28.4466C34.5867 28.7822 35.0433 29.0989 35.5 29.3966C35.7156 29.5577 36.0772 29.7927 36.585 30.1016C37.0928 30.4105 37.3617 30.6994 37.3917 30.9683C36.3705 30.9329 35.3482 30.9814 34.335 31.1133L34.4283 31.1033C33.5822 31.2132 32.7537 31.4316 31.9633 31.7533L32.03 31.73C31.8205 31.8188 31.6043 31.8907 31.3833 31.945L31.3517 31.9516C31.2369 31.9681 31.1309 32.0225 31.0505 32.1062C30.9702 32.1898 30.9202 32.2979 30.9083 32.4133C31.01 32.54 31.0917 32.6883 31.1467 32.8483L31.15 32.8583C31.2067 33.0283 31.275 33.175 31.3583 33.3116L31.3533 33.3016C31.5517 33.6533 31.765 33.9566 32.005 34.2366L31.9983 34.2283C32.2333 34.5183 32.4983 34.77 32.7917 34.985L32.8033 34.9933C33.0744 35.2089 33.3567 35.4305 33.65 35.6583C33.9183 35.8683 34.2217 36.075 34.5367 36.2616L34.5767 36.2833C35.05 36.5733 35.6 36.85 36.1733 37.0816L36.25 37.1083C36.8733 37.3583 37.4083 37.6483 37.905 37.9933L37.8783 37.975C38.2017 38.1627 38.5239 38.3711 38.845 38.6C39.1661 38.8289 39.475 39.0505 39.7717 39.265C39.8933 39.385 40 39.5183 40.09 39.6633L40.095 39.6716C40.2487 39.8489 40.4623 39.9634 40.695 39.9933H40.7V39.9133C40.5526 39.8018 40.4451 39.6457 40.3933 39.4683L40.3917 39.4616C40.3535 39.3012 40.2905 39.1476 40.205 39.0066L40.2083 39.0133L40.215 39.02ZM9.255 7.01163C9.03944 7.01163 8.83778 7.0183 8.65 7.03163C8.46679 7.04341 8.28587 7.0787 8.11166 7.13663L8.12666 7.13163V7.17163H8.20666C8.31444 7.33274 8.45 7.51385 8.61333 7.71497C8.77666 7.91608 8.92444 8.11108 9.05666 8.29996L9.70166 9.62996L9.78166 9.58996C9.96936 9.45485 10.115 9.26937 10.2017 9.05497L10.205 9.04663C10.2917 8.81497 10.3417 8.54496 10.3417 8.26497L10.34 8.17496V8.17997C10.2644 8.10646 10.2034 8.01939 10.16 7.9233L10.1583 7.9183L10.0233 7.61496C9.93688 7.4769 9.81326 7.36599 9.66666 7.29496L9.66166 7.2933C9.5119 7.22179 9.3746 7.12669 9.255 7.01163Z" fill="black"/>
</g>
<defs>
<clipPath id="clip0_33_274">
<rect width="40" height="40" fill="white"/>
</clipPath>
</defs>
</svg>
