<svg width="40" height="40" viewBox="0 0 40 40" fill="none" xmlns="http://www.w3.org/2000/svg">
<path d="M19.7916 10.1771C18.1666 10.4478 16.8022 11.1146 15.7812 12.1353C14.5728 13.3437 13.9584 14.7915 13.75 16.9375C13.6562 17.9165 13.6041 21.7709 13.6875 21.7709C13.7084 21.7709 13.9062 21.6978 14.125 21.604C14.6353 21.3853 15.7397 21.3853 16.3125 21.5937L16.75 21.75L16.8022 19.2396C16.8541 16.5625 16.9166 16.1562 17.4166 15.1562C17.7603 14.4896 18.5937 13.7084 19.3022 13.3853C20.1147 13.0103 21.3022 12.8646 22.2187 13.0103C24.1772 13.3334 25.3437 14.3959 25.8334 16.2915C26.0312 17.0521 26.0416 17.4478 26.0416 21.6353V26.1459H29.1875L29.1353 21.2187C29.1041 16.5625 29.0834 16.25 28.8647 15.4165C28.2709 13.104 26.8334 11.4271 24.8228 10.6665C23.75 10.2603 22.7291 10.104 21.3228 10.1146C20.625 10.125 19.9375 10.1562 19.7916 10.1771Z" fill="black"/>
<path d="M7.10406 17.875C6.20844 18.3228 5.72906 19.125 5.72906 20.2084C5.72906 20.5522 5.79156 20.9897 5.875 21.1875C6.07281 21.6772 6.63531 22.2709 7.125 22.5312C7.71875 22.8437 8.84375 22.8437 9.42719 22.5415L9.85406 22.3228L11.1875 23.229L12.5209 24.1459V25.5312L11.1875 26.4478L9.84375 27.3647L9.5 27.1562C9 26.8647 8.03125 26.8022 7.4375 27.0312C6.8125 27.2709 6.16656 27.8437 5.92719 28.3853C5.66656 28.9375 5.66656 30.0209 5.92719 30.5728C6.14594 31.0625 6.65625 31.604 7.11469 31.8437C7.30219 31.9375 7.75 32.0312 8.125 32.0625C9 32.125 9.73969 31.8334 10.2709 31.2084C10.6978 30.7084 10.9791 29.8334 10.9063 29.229L10.8541 28.8022L12.1978 27.8959L13.5416 26.9897L14.0209 27.2084C14.75 27.5209 15.8334 27.4478 16.5209 27.0312C17.2709 26.5625 17.6459 25.8959 17.6875 24.9584C17.7188 24.3022 17.6875 24.1562 17.4272 23.6459C16.75 22.354 15.2397 21.8647 13.9478 22.5103L13.5625 22.6978L12.2397 21.7915L10.9166 20.8853L10.8853 20.1562C10.8647 19.2812 10.6147 18.7187 10 18.2084C9.21875 17.5415 8.05219 17.4062 7.10406 17.875Z" fill="#018BFF"/>
</svg>
