<svg width="37" height="40" viewBox="0 0 37 40" fill="none" xmlns="http://www.w3.org/2000/svg">
<path d="M18.3664 40C17.7953 40 17.2644 39.8514 16.7685 39.5943L11.7111 36.6924C10.9514 36.2883 11.332 36.1414 11.5608 36.0679C12.586 35.7373 12.7763 35.6639 13.8416 35.0745C13.9551 35.001 14.1087 35.0377 14.2222 35.1112L18.1009 37.3536C18.2512 37.427 18.4432 37.427 18.5567 37.3536L33.729 28.865C33.8793 28.7915 33.9561 28.6446 33.9561 28.4609V11.5205C33.9561 11.3368 33.8809 11.1899 33.729 11.1164L18.5567 2.6662C18.4048 2.59273 18.2144 2.59273 18.1009 2.6662L2.9286 11.1164C2.77666 11.1899 2.69986 11.3735 2.69986 11.5205V28.4609C2.69986 28.6078 2.77666 28.7915 2.9286 28.865L7.07272 31.1808C9.31675 32.2828 10.7226 30.9971 10.7226 29.7115V12.9914C10.7226 12.771 10.913 12.5506 11.1801 12.5506H13.1186C13.3473 12.5506 13.5744 12.7343 13.5744 12.9914V29.7098C13.5744 32.6134 11.9398 34.3031 9.08801 34.3031C8.2131 34.3031 7.52854 34.3031 5.59005 33.3848L1.59787 31.1808C1.11681 30.9163 0.715091 30.5281 0.434192 30.0564C0.153293 29.5848 0.00340258 29.0466 0 28.4976V11.5572C0 10.4552 0.60776 9.42669 1.59787 8.8757L16.7702 0.385428C17.2641 0.132116 17.8112 0 18.3664 0C18.9215 0 19.4686 0.132116 19.9626 0.385428L35.1365 8.87403C36.125 9.42502 36.7327 10.4535 36.7327 11.5555V28.496C36.7327 29.598 36.125 30.6265 35.1365 31.1791L19.9626 39.6661C19.4588 39.8845 18.9155 39.997 18.3664 39.9967V40ZM23.0431 28.3507C16.3895 28.3507 15.0203 25.4121 15.0203 22.9126C15.0203 22.6922 15.2107 22.4718 15.4762 22.4718H17.4531C17.6818 22.4718 17.8705 22.6187 17.8705 22.8391C18.176 24.786 19.0509 25.741 23.0815 25.741C26.2756 25.741 27.6447 25.0431 27.6447 23.3901C27.6447 22.4351 27.264 21.7372 22.2834 21.2596C18.1376 20.8539 15.553 19.974 15.553 16.7766C15.553 13.7996 18.1376 12.0347 22.4737 12.0347C27.3408 12.0347 29.7368 13.6526 30.0407 17.1806C30.0373 17.3001 29.9971 17.4155 29.9255 17.5112C29.8503 17.5847 29.7368 17.6582 29.6216 17.6582H27.6447C27.5487 17.6558 27.456 17.6223 27.3807 17.5627C27.3054 17.503 27.2516 17.4205 27.2273 17.3276C26.7698 15.3073 25.591 14.6444 22.4737 14.6444C18.9741 14.6444 18.5567 15.8199 18.5567 16.7014C18.5567 17.7684 19.0509 18.0989 23.7661 18.6867C28.4428 19.2744 30.6485 20.1192 30.6485 23.2783C30.61 26.5141 27.8735 28.3507 23.0431 28.3507Z" fill="black"/>
</svg>
