<svg width="40" height="40" viewBox="0 0 40 40" fill="none" xmlns="http://www.w3.org/2000/svg">
<path d="M29.3153 28.785C29.5606 26.7434 29.4872 26.4437 31.0078 26.7747L31.3937 26.8084C32.5631 26.8615 34.0928 26.6203 34.9916 26.2028C36.9263 25.305 38.0731 23.8065 36.1659 24.2C31.8147 25.0978 31.5156 23.6243 31.5156 23.6243C36.1103 16.8071 38.0309 8.15309 36.3728 6.03465C31.8509 0.256837 24.0238 2.98902 23.8928 3.05965L23.8509 3.06746C22.9912 2.88902 22.0291 2.78246 20.9481 2.76496C18.9791 2.73246 17.485 3.28121 16.3516 4.14059C16.3516 4.14059 2.38812 -1.61223 3.03781 11.3753C3.17594 14.1381 6.99781 32.2809 11.5566 26.8009C13.2228 24.7971 14.8328 23.1028 14.8328 23.1028C15.6322 23.6337 16.5897 23.905 17.5934 23.8075L17.6712 23.7412C17.6469 23.99 17.6575 24.2334 17.7022 24.5215C16.5281 25.8337 16.8731 26.064 14.5253 26.5471C12.1497 27.0365 13.5453 27.9081 14.4562 28.1359C15.5609 28.4122 18.1162 28.8034 19.8431 26.3865L19.7744 26.6621C20.235 27.0309 20.2041 29.3112 20.2691 30.9403C20.3344 32.5697 20.4434 34.09 20.7756 34.9865C21.1078 35.8828 21.4997 38.1915 24.5853 37.5303C27.1641 36.979 29.1356 36.1837 29.3153 28.785Z" fill="black"/>
<path d="M23.5806 39.1424C22.2159 39.1424 21.3272 38.6146 20.7875 38.1049C19.9728 37.3362 19.6497 36.3459 19.4566 35.7543L19.3731 35.5074C18.9844 34.4581 18.8525 32.9471 18.7744 31.0015C18.7625 30.7093 18.7544 30.4084 18.7453 30.0893C18.7388 29.8559 18.7306 29.5631 18.7188 29.2568C18.2271 29.4912 17.7052 29.6562 17.1681 29.7468C16.2059 29.9112 15.1716 29.8581 14.0931 29.5884C13.3322 29.3981 12.5416 29.0037 12.0909 28.3946C10.7775 29.5449 9.52469 29.389 8.84219 29.1612C7.63813 28.7596 6.56063 27.6312 5.54782 25.7121C4.82625 24.3449 4.12844 22.5637 3.47344 20.4174C2.33282 16.6799 1.60813 12.7434 1.54375 11.4509C1.34125 7.40557 2.43032 4.51244 4.78 2.85275C8.48657 0.234629 14.1025 1.77432 16.15 2.47338C17.5256 1.64432 19.1441 1.24088 20.9728 1.26994C21.955 1.28588 22.8903 1.37213 23.7591 1.52713C24.6653 1.24213 26.4553 0.833067 28.5044 0.858692C32.2797 0.903692 35.4081 2.37494 37.5509 5.11338C39.0803 7.06713 38.3241 11.1699 37.7375 13.4418C36.9119 16.6374 35.4653 20.0362 33.6884 22.9949C34.1709 22.9984 34.87 22.9406 35.8638 22.7353C37.8244 22.3306 38.3978 23.3818 38.5534 23.8524C39.1769 25.7406 36.4669 27.1674 35.6216 27.5599C34.5384 28.0628 32.7725 28.369 31.3263 28.3028L31.2631 28.2987L30.8831 28.2653L30.8456 28.5821L30.8094 28.8918C30.7122 32.6415 30.1766 35.0162 29.0744 36.5853C27.9191 38.2303 26.3134 38.6912 24.8991 38.9943C24.4166 39.0974 23.9781 39.1424 23.5806 39.1424ZM20.7088 25.4953C21.5897 26.2003 21.6669 27.5268 21.7359 30.0059C21.7447 30.3153 21.7528 30.6081 21.7638 30.8815C21.7969 31.7096 21.8747 33.6487 22.1784 34.4681C22.2213 34.584 22.2597 34.7015 22.3003 34.8262C22.6388 35.8624 22.8084 36.3821 24.2719 36.0693C25.5003 35.8059 26.1319 35.5696 26.6263 34.8659C27.3447 33.8428 27.7466 31.7846 27.8203 28.7487L29.315 28.7849L27.8306 28.6068L27.8744 28.2362C28.0166 27.0143 28.1191 26.1318 28.9356 25.5481C29.5909 25.0799 30.3375 25.1253 30.9322 25.2324C30.2788 24.7387 30.0981 24.1596 30.05 23.9221L29.9253 23.3081L30.2756 22.7884C32.2934 19.7946 33.9572 16.1153 34.8409 12.6934C35.7491 9.17744 35.4722 7.31025 35.1953 6.95713C31.53 2.27369 25.1741 4.20744 24.5103 4.42682L24.3981 4.48744L23.8356 4.59213L23.5475 4.53244C22.7531 4.36744 21.8706 4.27619 20.9247 4.26088C19.4384 4.23588 18.2394 4.58713 17.2563 5.33307L16.5741 5.85025L15.7825 5.52432C14.0913 4.83275 9.12375 3.44244 6.5025 5.299C5.0475 6.32963 4.38469 8.349 4.53219 11.3012C4.58094 12.2759 5.24313 15.9656 6.33563 19.544C7.84532 24.4893 9.21719 26.1321 9.79 26.3231C9.89 26.3568 10.1494 26.1553 10.4075 25.8453C11.4838 24.5551 12.5982 23.2972 13.7494 22.0734L14.615 21.1624L15.6616 21.8578C16.0834 22.1381 16.5488 22.2971 17.0266 22.3271L19.5225 20.1984L19.1609 23.8884C19.1528 23.9712 19.1488 24.084 19.1813 24.2934L19.29 24.9928L18.8181 25.5203L18.7638 25.5815L20.135 26.2143L20.7088 25.4953Z" fill="black"/>
<path d="M36.1659 24.2C31.8144 25.0978 31.5153 23.6244 31.5153 23.6244C36.11 16.8069 38.0306 8.15251 36.3731 6.0347C31.8512 0.257198 24.0234 2.98939 23.8928 3.06032L23.8506 3.06782C22.9909 2.88939 22.0287 2.78314 20.9472 2.76564C18.9781 2.73345 17.4847 3.28189 16.3513 4.14126C16.3513 4.14126 2.3875 -1.61124 3.03687 11.3759C3.175 14.1391 6.99687 32.2819 11.5556 26.8019C13.2219 24.7981 14.8316 23.1038 14.8316 23.1038C15.6312 23.6347 16.5884 23.9059 17.5919 23.8084L17.67 23.7422C17.6456 23.9909 17.6569 24.2344 17.7013 24.5225C16.5269 25.8347 16.8719 26.065 14.5241 26.5481C12.1484 27.0375 13.5441 27.9091 14.4553 28.1369C15.5597 28.4131 18.1153 28.8044 19.8419 26.3875L19.7728 26.6631C20.2331 27.0319 20.5563 29.0606 20.5022 30.8997C20.4478 32.7388 20.4116 34.0016 20.7744 34.9878C21.1369 35.9741 21.4981 38.1928 24.5844 37.5316C27.1631 36.9791 28.4994 35.5469 28.6856 33.1581C28.8175 31.4597 29.1159 31.7109 29.135 30.1925L29.3747 29.4738C29.6509 27.1716 29.4184 26.4291 31.0075 26.7744L31.3934 26.8081C32.5628 26.8613 34.0931 26.62 34.9916 26.2025C36.9259 25.3053 38.0731 23.8066 36.1659 24.2Z" fill="#336791"/>
<path d="M23.7366 38.221C21.1641 38.221 20.3491 36.1838 20.0156 35.3507C19.5275 34.1298 19.4222 29.3916 19.5309 25.506C19.5326 25.4405 19.5471 25.3759 19.5738 25.316C19.6005 25.2562 19.6387 25.2022 19.6864 25.1571C19.734 25.1121 19.7901 25.077 19.8514 25.0537C19.9126 25.0304 19.9779 25.0195 20.0434 25.0216C20.1089 25.0234 20.1733 25.0381 20.2331 25.0648C20.2929 25.0915 20.3468 25.1297 20.3918 25.1773C20.4368 25.2249 20.472 25.2808 20.4953 25.342C20.5186 25.4032 20.5297 25.4684 20.5278 25.5338C20.4025 30.0154 20.5803 34.0766 20.9416 34.9804C21.5053 36.3894 22.3603 37.6219 24.7775 37.1041C27.0722 36.6119 27.9316 35.7419 28.3144 33.5229C28.6081 31.8201 29.1891 26.9757 29.2606 26.0198C29.2654 25.9544 29.283 25.8907 29.3125 25.8322C29.342 25.7737 29.3827 25.7216 29.4323 25.6788C29.482 25.6361 29.5396 25.6036 29.6018 25.5832C29.664 25.5627 29.7297 25.5548 29.795 25.5598C29.9268 25.5697 30.0493 25.6316 30.1355 25.7318C30.2218 25.832 30.2647 25.9623 30.255 26.0941C30.1803 27.0894 29.6022 31.9244 29.2972 33.6926C28.8453 36.3135 27.6769 37.5023 24.9866 38.0791C24.5294 38.1769 24.1141 38.2207 23.7366 38.221ZM9.78782 28.2707C9.56296 28.2699 9.33969 28.233 9.12657 28.1613C7.45563 27.6038 5.86407 24.8826 4.39594 20.0723C3.27844 16.4107 2.57032 12.5888 2.50813 11.3466C2.32407 7.66412 3.27219 5.05881 5.32688 3.6035C9.39157 0.723498 16.2294 3.466 16.5184 3.58412C16.6409 3.63414 16.7385 3.73076 16.7897 3.85271C16.8409 3.97467 16.8416 4.11198 16.7916 4.23444C16.7415 4.35689 16.6449 4.45446 16.523 4.50568C16.401 4.5569 16.2637 4.55758 16.1413 4.50756C16.0753 4.48069 9.51844 1.85381 5.90125 4.4185C4.14438 5.66412 3.33782 7.9785 3.50375 11.2969C3.55594 12.3435 4.2175 16.0735 5.34938 19.781C6.66 24.0754 8.15157 26.7851 9.44188 27.2154C9.64438 27.2829 10.2606 27.4882 11.1416 26.4288C12.1689 25.195 13.2347 23.9938 14.3375 22.8269C14.4298 22.7349 14.5544 22.6826 14.6847 22.6813C14.8151 22.68 14.9407 22.7298 15.0348 22.82C15.1289 22.9101 15.184 23.0336 15.1882 23.1638C15.1924 23.2941 15.1455 23.4208 15.0575 23.5169C15.0425 23.5326 13.5428 25.1004 11.9084 27.0666C11.1344 27.9976 10.3925 28.2707 9.78782 28.2707ZM31.4844 24.0691C31.394 24.069 31.3053 24.0443 31.2279 23.9977C31.1504 23.9511 31.0871 23.8843 31.0446 23.8045C31.0022 23.7247 30.9823 23.6348 30.987 23.5445C30.9917 23.4542 31.0208 23.3669 31.0713 23.2919C35.7159 16.3997 37.3463 8.07194 35.95 6.28756C34.1925 4.04194 31.7109 2.86912 28.5738 2.80131C26.2509 2.75131 24.4047 3.34444 24.1028 3.44787L24.0269 3.47881C23.7234 3.57412 23.4906 3.40787 23.4028 3.2135C23.3527 3.10213 23.3452 2.9763 23.3815 2.85972C23.4178 2.74315 23.4955 2.6439 23.6 2.58069C23.6144 2.57225 23.66 2.55287 23.7341 2.52569C24.2469 2.33787 26.1213 1.77537 28.4428 1.80194C31.9141 1.83881 34.7816 3.17725 36.7347 5.67319C37.6588 6.85412 37.6609 9.57475 36.7406 13.1379C35.8025 16.7707 34.0372 20.6748 31.8978 23.8494C31.8022 23.9923 31.6447 24.0691 31.4844 24.0691ZM31.7219 27.2598C30.9288 27.2598 30.2178 27.1479 29.7922 26.8929C29.3547 26.6307 29.2713 26.2744 29.2603 26.0854C29.1409 23.9885 30.2978 23.6235 30.8878 23.4569C30.8056 23.3326 30.6888 23.1863 30.5678 23.0354C30.2238 22.6054 29.7525 22.0166 29.3894 21.136C29.3325 20.9985 29.1544 20.6788 28.9481 20.3085C27.8297 18.3029 25.5025 14.1294 26.9975 11.9922C27.6894 11.0032 29.0672 10.6138 31.0972 10.831C30.5 9.01162 27.6563 3.32037 20.9084 3.20975C18.8791 3.176 17.2147 3.80006 15.9641 5.06287C13.1641 7.89069 13.2653 13.0072 13.2669 13.0585C13.2686 13.124 13.2574 13.1891 13.234 13.2502C13.2105 13.3114 13.1752 13.3673 13.1302 13.4148C13.0851 13.4623 13.0311 13.5005 12.9713 13.5271C12.9115 13.5537 12.847 13.5683 12.7816 13.5701C12.7161 13.5718 12.651 13.5606 12.5898 13.5371C12.5287 13.5137 12.4728 13.4784 12.4253 13.4334C12.3778 13.3883 12.3396 13.3343 12.313 13.2745C12.2863 13.2147 12.2717 13.1502 12.27 13.0847C12.2638 12.8576 12.1594 7.48819 15.2556 4.361C16.7047 2.89756 18.6122 2.17506 20.925 2.21287C25.2419 2.28381 28.0206 4.4785 29.5913 6.30694C31.3034 8.29975 32.1428 10.4979 32.2119 11.2316C32.2634 11.7773 31.8719 11.8863 31.7928 11.9026L31.6128 11.9066C29.6206 11.5876 28.3425 11.8091 27.8141 12.5641C26.6769 14.1894 28.8784 18.1372 29.8184 19.8232C30.0584 20.2532 30.2316 20.5641 30.3109 20.756C30.6197 21.5047 31.0225 22.0079 31.3459 22.4123C31.6306 22.7679 31.8772 23.0763 31.9653 23.4382C32.0063 23.5101 32.5872 24.3694 36.0344 23.6579C36.8984 23.4798 37.4166 23.6319 37.575 24.111C37.8866 25.0532 36.1384 26.1523 35.1706 26.6016C34.3034 27.0048 32.9194 27.2598 31.7219 27.2598ZM30.2544 26.0032C30.3638 26.1135 30.9109 26.3038 32.0441 26.2551C33.0516 26.2119 34.1141 25.9929 34.7516 25.6969C35.5669 25.3182 36.1113 24.8948 36.3931 24.6057L36.2369 24.6344C34.0328 25.0894 32.4738 25.0288 31.6031 24.4541C31.5446 24.4155 31.4883 24.3736 31.4344 24.3288C31.34 24.366 31.2528 24.3904 31.1906 24.4079C30.6969 24.5463 30.1863 24.6898 30.2544 26.0032ZM16.0163 28.7891C15.4688 28.7891 14.8925 28.7144 14.3041 28.5673C13.6944 28.4148 12.6666 27.9557 12.6822 27.2016C12.7 26.3557 13.9303 26.1019 14.3934 26.0066C16.0666 25.6619 16.1756 25.5238 16.6984 24.8598C16.8509 24.6663 17.0406 24.4254 17.2994 24.1366C17.6834 23.7066 18.1031 23.4888 18.5469 23.4888C18.8559 23.4888 19.1094 23.5935 19.2769 23.6632C19.8106 23.8844 20.2559 24.4194 20.4391 25.0591C20.6044 25.6363 20.5253 26.1919 20.2172 26.6235C19.2056 28.0401 17.7528 28.7891 16.0163 28.7891ZM13.7594 27.2444C13.9097 27.3607 14.2109 27.516 14.5463 27.5998C15.0559 27.7273 15.5503 27.7919 16.0166 27.7919C17.4372 27.7919 18.5778 27.2038 19.4063 26.0438C19.5791 25.8019 19.5272 25.4948 19.4809 25.3332C19.3841 24.9948 19.1434 24.6869 18.8956 24.5841C18.7613 24.5285 18.6497 24.486 18.5472 24.486C18.4922 24.486 18.3247 24.486 18.0428 24.8013C17.8483 25.0201 17.6613 25.2454 17.4822 25.4769C16.8309 26.3038 16.5325 26.5844 14.595 26.9835C14.1222 27.0804 13.8797 27.1791 13.7594 27.2444ZM17.5934 24.9444C17.4744 24.9442 17.3594 24.9015 17.2691 24.8239C17.1788 24.7463 17.1193 24.639 17.1013 24.5213C17.0889 24.4385 17.0805 24.3552 17.0763 24.2716C15.8063 24.2479 14.5809 23.7029 13.6506 22.7323C12.4744 21.5051 11.9391 19.8048 12.1822 18.0676C12.4463 16.181 12.3475 14.5157 12.2944 13.621C12.2797 13.3722 12.2691 13.1926 12.2697 13.0682C12.2706 12.9104 12.2738 12.4919 13.6725 11.7829C14.17 11.5307 15.1675 11.0907 16.2572 10.9779C18.0625 10.7913 19.2525 11.5954 19.6088 13.2422C20.5703 17.6885 19.685 19.6551 19.0384 21.0913C18.9181 21.3588 18.8044 21.6113 18.7134 21.856L18.6331 22.0716C18.2916 22.9876 17.9963 23.7788 18.0869 24.3698C18.0968 24.4345 18.0939 24.5005 18.0783 24.5641C18.0628 24.6277 18.0348 24.6876 17.9961 24.7404C17.9573 24.7932 17.9086 24.8378 17.8526 24.8718C17.7966 24.9057 17.7344 24.9283 17.6697 24.9382L17.5934 24.9444ZM13.27 13.2063L13.2894 13.5622C13.3444 14.4916 13.4469 16.221 13.1694 18.206C12.9691 19.6388 13.4066 21.0373 14.3703 22.0423C15.1319 22.8366 16.1341 23.2751 17.1641 23.2751H17.1853C17.3006 22.7891 17.4922 22.276 17.6984 21.7232L17.7781 21.5088C17.8809 21.2326 18.0013 20.9651 18.1288 20.6819C18.7509 19.2994 19.5256 17.5785 18.6334 13.4532C18.4569 12.636 18.0284 12.1632 17.3244 12.0072C15.8781 11.6879 13.7228 12.7757 13.27 13.2063ZM16.2794 12.9947C16.2544 13.171 16.6022 13.6416 17.0559 13.7044C17.5088 13.7679 17.8963 13.3997 17.9209 13.2235C17.9456 13.0472 17.5981 12.8529 17.1444 12.7897C16.6909 12.7266 16.3034 12.8185 16.2794 12.9947ZM17.16 13.8779L17.0328 13.8691C16.7516 13.8301 16.4672 13.6529 16.2725 13.3947C16.2041 13.3041 16.0925 13.1285 16.1147 12.9716C16.1463 12.7416 16.4269 12.6038 16.8647 12.6038C16.9625 12.6038 17.0644 12.611 17.1669 12.6254C17.4063 12.6585 17.6284 12.7276 17.7925 12.8191C18.0769 12.9779 18.0978 13.1551 18.085 13.2466C18.05 13.5007 17.6459 13.8779 17.16 13.8779ZM16.4447 13.0241C16.4588 13.1329 16.7281 13.4916 17.0788 13.5401L17.1603 13.5457C17.4841 13.5457 17.7259 13.291 17.7544 13.2076C17.7244 13.1507 17.5163 13.0094 17.1216 12.9544C17.0366 12.9422 16.9509 12.9361 16.865 12.936C16.6113 12.936 16.4766 12.9932 16.4447 13.0241ZM30.0713 12.6351C30.0959 12.8113 29.7484 13.2819 29.295 13.3451C28.8419 13.4082 28.4541 13.0404 28.4291 12.8641C28.4053 12.6879 28.7528 12.4932 29.2059 12.4304C29.6591 12.3669 30.0463 12.4591 30.0713 12.6351ZM29.1903 13.4351C28.7541 13.4351 28.3775 13.0957 28.3466 12.8754C28.3106 12.611 28.7459 12.4101 29.1941 12.3479C29.2928 12.3341 29.3906 12.3272 29.4847 12.3272C29.8716 12.3272 30.1278 12.4407 30.1534 12.6238C30.17 12.7422 30.0791 12.9251 29.9225 13.0901C29.8191 13.1985 29.6019 13.3863 29.3059 13.4272L29.1903 13.4351ZM29.485 12.4935C29.3988 12.4935 29.3088 12.5001 29.2175 12.5126C28.7672 12.5754 28.4984 12.756 28.5116 12.8529C28.5266 12.9594 28.8141 13.2691 29.1906 13.2691L29.2834 13.2626C29.5294 13.2285 29.7141 13.0679 29.8022 12.9754C29.9406 12.8301 29.9956 12.6932 29.9891 12.6466C29.9803 12.5847 29.8141 12.4935 29.485 12.4935ZM30.7241 22.7569C30.6337 22.757 30.5451 22.7325 30.4676 22.686C30.3901 22.6396 30.3267 22.5729 30.2842 22.4932C30.2417 22.4135 30.2217 22.3237 30.2263 22.2335C30.2309 22.1433 30.2599 22.056 30.3103 21.981C31.3722 20.3951 31.1778 18.7779 30.99 17.2138C30.9097 16.5476 30.8272 15.8585 30.8484 15.1972C30.8703 14.5169 30.9569 13.9557 31.0403 13.4129C31.1394 12.7697 31.2331 12.1622 31.1944 11.441C31.1908 11.3756 31.2002 11.3102 31.222 11.2484C31.2437 11.1867 31.2775 11.1298 31.3212 11.0811C31.3649 11.0324 31.4178 10.9928 31.4769 10.9645C31.5359 10.9362 31.5999 10.9198 31.6653 10.9163C31.7307 10.9128 31.7961 10.9222 31.8579 10.9439C31.9196 10.9657 31.9765 10.9994 32.0252 11.0431C32.0739 11.0868 32.1135 11.1397 32.1418 11.1988C32.1701 11.2578 32.1865 11.3219 32.19 11.3872C32.2344 12.2116 32.1284 12.8991 32.0259 13.5644C31.9469 14.0779 31.865 14.6088 31.8453 15.2291C31.8263 15.8147 31.9009 16.4366 31.98 17.0947C32.18 18.7579 32.4066 20.6429 31.1391 22.5357C31.0934 22.6039 31.0317 22.6597 30.9593 22.6983C30.8869 22.7369 30.8061 22.757 30.7241 22.7569Z" fill="white"/>
</svg>
