<svg width="41" height="40" viewBox="0 0 41 40" fill="none" xmlns="http://www.w3.org/2000/svg">
<g clip-path="url(#clip0_32_38)">
<path d="M20.5707 0.0942383C10.4431 0.0942383 11.0755 4.48613 11.0755 4.48613L11.0867 9.03627H20.7512V10.4023H7.24812C7.24812 10.4023 0.767517 9.66737 0.767517 19.886C0.767517 30.1049 6.42395 29.7425 6.42395 29.7425H9.79969V25.0005C9.79969 25.0005 9.6177 19.3441 15.3658 19.3441H24.9513C24.9513 19.3441 30.3367 19.4311 30.3367 14.1392V5.38951C30.3367 5.38951 31.1546 0.0942383 20.5707 0.0942383ZM15.2416 3.15412C15.47 3.15391 15.6962 3.19874 15.9072 3.28604C16.1183 3.37335 16.31 3.5014 16.4715 3.66289C16.633 3.82438 16.761 4.01613 16.8484 4.22716C16.9357 4.4382 16.9805 4.66438 16.9803 4.89275C16.9805 5.12113 16.9357 5.34731 16.8484 5.55835C16.761 5.76938 16.633 5.96113 16.4715 6.12262C16.31 6.2841 16.1183 6.41216 15.9072 6.49947C15.6962 6.58677 15.47 6.6316 15.2416 6.63139C15.0133 6.6316 14.7871 6.58677 14.576 6.49947C14.365 6.41216 14.1733 6.2841 14.0118 6.12262C13.8503 5.96113 13.7222 5.76938 13.6349 5.55835C13.5476 5.34731 13.5028 5.12113 13.503 4.89275C13.5028 4.66438 13.5476 4.4382 13.6349 4.22716C13.7222 4.01613 13.8503 3.82438 14.0118 3.66289C14.1733 3.5014 14.365 3.37335 14.576 3.28604C14.7871 3.19874 15.0133 3.15391 15.2416 3.15412Z" fill="url(#paint0_linear_32_38)"/>
<path d="M20.8583 39.7806C30.9858 39.7806 30.3534 35.3887 30.3534 35.3887L30.3422 30.8387H20.6775V29.4726H34.1806C34.1806 29.4726 40.6612 30.2076 40.6612 19.9887C40.6612 9.76992 35.0048 10.1323 35.0048 10.1323H31.6291V14.8741C31.6291 14.8741 31.811 20.5306 26.0629 20.5306H16.4774C16.4774 20.5306 11.092 20.4436 11.092 25.7355V34.4854C11.092 34.4854 10.2743 39.7806 20.8581 39.7806H20.8583ZM26.1873 36.721C25.9589 36.7212 25.7327 36.6764 25.5217 36.5891C25.3106 36.5018 25.1189 36.3737 24.9574 36.2122C24.7959 36.0507 24.6679 35.859 24.5806 35.6479C24.4933 35.4369 24.4484 35.2107 24.4486 34.9824C24.4484 34.754 24.4932 34.5278 24.5805 34.3167C24.6678 34.1057 24.7959 33.9139 24.9573 33.7524C25.1188 33.5909 25.3106 33.4628 25.5216 33.3755C25.7327 33.2882 25.9589 33.2434 26.1873 33.2436C26.4156 33.2434 26.6418 33.2882 26.8529 33.3755C27.0639 33.4628 27.2556 33.5908 27.4171 33.7523C27.5786 33.9138 27.7067 34.1056 27.794 34.3166C27.8813 34.5276 27.9261 34.7538 27.9259 34.9822C27.9261 35.2106 27.8813 35.4368 27.794 35.6478C27.7067 35.8588 27.5786 36.0506 27.4171 36.2121C27.2556 36.3735 27.0639 36.5016 26.8529 36.5889C26.6418 36.6762 26.4156 36.7212 26.1873 36.721Z" fill="url(#paint1_linear_32_38)"/>
</g>
<defs>
<linearGradient id="paint0_linear_32_38" x1="384.145" y1="357.048" x2="2361.16" y2="2314.34" gradientUnits="userSpaceOnUse">
<stop stop-color="#387EB8"/>
<stop offset="1" stop-color="#366994"/>
</linearGradient>
<linearGradient id="paint1_linear_32_38" x1="576.957" y1="620.294" x2="2700.04" y2="2627.31" gradientUnits="userSpaceOnUse">
<stop stop-color="#FFE052"/>
<stop offset="1" stop-color="#FFC331"/>
</linearGradient>
<clipPath id="clip0_32_38">
<rect width="40" height="39.834" fill="white" transform="translate(0.73999 0.0830078)"/>
</clipPath>
</defs>
</svg>
