<svg width="40" height="40" viewBox="0 0 40 40" fill="none" xmlns="http://www.w3.org/2000/svg">
<g clip-path="url(#clip0_32_175)">
<path d="M39.7267 19.5097L38.0475 18.4702C38.0333 18.307 38.0174 18.144 37.9997 17.9811L39.4428 16.635C39.515 16.568 39.5687 16.4835 39.599 16.3898C39.6292 16.2961 39.6349 16.1961 39.6155 16.0995C39.5965 16.0029 39.5531 15.9128 39.4894 15.8377C39.4256 15.7626 39.3437 15.7052 39.2514 15.6708L37.4066 14.981C37.3602 14.8217 37.312 14.6629 37.262 14.5047L38.4128 12.9064C38.4705 12.8265 38.5067 12.7332 38.5181 12.6354C38.5296 12.5375 38.5158 12.4384 38.4781 12.3473C38.4404 12.2563 38.3801 12.1764 38.3028 12.1153C38.2256 12.0541 38.134 12.0138 38.0367 11.998L36.0914 11.6816C36.0158 11.5341 35.937 11.3888 35.8577 11.2447L36.675 9.45049C36.7161 9.36096 36.7336 9.26236 36.7257 9.16414C36.7179 9.06592 36.6849 8.97137 36.63 8.88955C36.5755 8.80746 36.5009 8.74075 36.4132 8.69583C36.3256 8.6509 36.2278 8.62926 36.1294 8.63299L34.155 8.70174C34.053 8.57402 33.9491 8.44791 33.8431 8.32346L34.2969 6.40033C34.3196 6.30442 34.3173 6.20429 34.2904 6.10949C34.2634 6.01469 34.2126 5.92837 34.1428 5.85877C34.0732 5.78909 33.9869 5.73836 33.8922 5.71139C33.7975 5.68443 33.6974 5.68213 33.6016 5.70471L31.6789 6.15799C31.5541 6.05217 31.4277 5.9482 31.2998 5.84611L31.3689 3.87189C31.3726 3.77347 31.351 3.67575 31.3061 3.58807C31.2613 3.50039 31.1946 3.42569 31.1127 3.37111C31.0308 3.31631 30.9363 3.28337 30.8381 3.27544C30.7399 3.2675 30.6413 3.28484 30.5517 3.3258L28.758 4.14361C28.6133 4.06376 28.4676 3.98562 28.3211 3.90924L28.0039 1.96361C27.988 1.86646 27.9476 1.77497 27.8865 1.69781C27.8253 1.62066 27.7455 1.56039 27.6546 1.52272C27.5636 1.48506 27.4645 1.47124 27.3668 1.48258C27.269 1.49392 27.1757 1.53004 27.0958 1.58752L25.4964 2.7383C25.3391 2.6883 25.1808 2.64002 25.0211 2.59424L24.3312 0.74908C24.2969 0.656643 24.2395 0.57455 24.1644 0.510648C24.0893 0.446745 23.9991 0.403168 23.9023 0.38408C23.8058 0.365088 23.7061 0.370988 23.6125 0.401222C23.5189 0.431457 23.4345 0.485031 23.3673 0.556893L22.0213 2.00111C21.8585 1.98287 21.6954 1.96693 21.5322 1.9533L20.4927 0.273612C20.4409 0.189913 20.3685 0.120835 20.2825 0.0729292C20.1966 0.0250233 20.0998 -0.00012207 20.0013 -0.00012207C19.9029 -0.00012207 19.8061 0.0250233 19.7201 0.0729292C19.6341 0.120835 19.5618 0.189913 19.51 0.273612L18.4705 1.9533C18.3071 1.96691 18.1439 1.98285 17.9809 2.00111L16.6345 0.556893C16.5674 0.484764 16.483 0.431006 16.3892 0.400734C16.2955 0.370461 16.1955 0.364682 16.0989 0.383945C16.0023 0.403208 15.9122 0.446874 15.8373 0.510786C15.7623 0.574698 15.7049 0.656732 15.6706 0.74908L14.9809 2.59424C14.8211 2.64002 14.663 2.68861 14.5052 2.7383L12.9061 1.58752C12.8262 1.52977 12.7329 1.49349 12.6349 1.48214C12.537 1.47078 12.4378 1.48474 12.3469 1.52267C12.256 1.56043 12.1762 1.62073 12.1151 1.69788C12.054 1.77503 12.0136 1.86649 11.9977 1.96361L11.6805 3.90924C11.5336 3.98533 11.3884 4.06361 11.2436 4.14361L9.44969 3.32564C9.36015 3.28466 9.2616 3.26732 9.16345 3.27528C9.0653 3.28325 8.97083 3.31624 8.88906 3.37111C8.80702 3.42565 8.74034 3.50034 8.69542 3.58802C8.6505 3.6757 8.62884 3.77344 8.6325 3.87189L8.70125 5.84611C8.57352 5.94838 8.44715 6.05235 8.32219 6.15799L6.39953 5.70486C6.30362 5.68239 6.20357 5.68472 6.10881 5.71165C6.01406 5.73858 5.92772 5.78921 5.85797 5.85877C5.78819 5.92837 5.73739 6.01469 5.71042 6.10949C5.68345 6.20429 5.68121 6.30442 5.70391 6.40033L6.15687 8.32346C6.05172 8.44799 5.94781 8.57408 5.84578 8.70174L3.87141 8.63299C3.77308 8.62988 3.67558 8.65178 3.58802 8.69662C3.50047 8.74147 3.42572 8.80779 3.37078 8.88939C3.31599 8.97125 3.28305 9.06577 3.27509 9.16395C3.26714 9.26213 3.28442 9.36071 3.32531 9.45033L4.14313 11.2447C4.06359 11.3888 3.985 11.5341 3.90875 11.6816L1.96359 11.998C1.86639 12.0138 1.77485 12.0543 1.69765 12.1154C1.62045 12.1766 1.56015 12.2564 1.52248 12.3474C1.4848 12.4384 1.471 12.5375 1.48238 12.6354C1.49376 12.7332 1.52995 12.8265 1.5875 12.9064L2.73828 14.5049C2.68828 14.6627 2.63969 14.8211 2.59375 14.981L0.74875 15.6708C0.65661 15.7054 0.574827 15.763 0.51114 15.838C0.447453 15.9131 0.40397 16.0031 0.384805 16.0997C0.36564 16.1962 0.371428 16.296 0.401621 16.3897C0.431813 16.4834 0.485412 16.5678 0.557344 16.635L2.00063 17.981C1.98266 18.1435 1.96672 18.307 1.95297 18.4702L0.273438 19.5097C0.189752 19.5615 0.120701 19.6339 0.0728438 19.7199C0.0249863 19.8059 -8.88244e-05 19.9027 2.36416e-07 20.0011C2.36416e-07 20.2017 0.103594 20.3875 0.273594 20.4922L1.95297 21.5317C1.96672 21.6953 1.98266 21.8586 2.00063 22.021L0.557188 23.3674C0.485128 23.4345 0.431415 23.5189 0.401151 23.6126C0.370887 23.7063 0.365075 23.8061 0.384268 23.9027C0.403461 23.9993 0.447021 24.0894 0.510813 24.1644C0.574604 24.2394 0.656509 24.2968 0.74875 24.3313L2.59375 25.0211C2.63969 25.1808 2.68828 25.3394 2.73828 25.4972L1.5875 27.0958C1.52984 27.1757 1.49358 27.269 1.48217 27.3669C1.47076 27.4648 1.48459 27.5639 1.52233 27.655C1.56007 27.746 1.62048 27.8258 1.6978 27.8869C1.77512 27.948 1.86678 27.9883 1.96406 28.0039L3.90891 28.3203C3.985 28.4678 4.06297 28.6131 4.14328 28.7578L3.32531 30.5516C3.28435 30.6412 3.26702 30.7398 3.27498 30.838C3.28294 30.9362 3.31592 31.0307 3.37078 31.1125C3.42533 31.1945 3.49999 31.2611 3.58764 31.306C3.67529 31.3509 3.773 31.3726 3.87141 31.3689L5.84484 31.2999C5.94781 31.4281 6.05141 31.5539 6.15687 31.6789L5.70391 33.6024C5.68123 33.6981 5.68348 33.7981 5.71045 33.8927C5.73743 33.9873 5.78822 34.0734 5.85797 34.1428C5.92753 34.2127 6.01386 34.2635 6.10869 34.2904C6.20352 34.3173 6.30366 34.3193 6.39953 34.2964L8.32219 33.8436C8.44719 33.9499 8.57375 34.053 8.70141 34.1545L8.63266 36.1294C8.62911 36.2278 8.65079 36.3255 8.69565 36.4131C8.7405 36.5008 8.80704 36.5755 8.88892 36.6302C8.97081 36.6849 9.06532 36.7177 9.16347 36.7255C9.26163 36.7334 9.36015 36.716 9.44969 36.675L11.2436 35.8577C11.388 35.9379 11.5337 36.016 11.6805 36.0919L11.9977 38.0364C12.0133 38.1337 12.0536 38.2253 12.1148 38.3026C12.1759 38.3799 12.2558 38.4402 12.3469 38.4778C12.4379 38.5155 12.537 38.5294 12.6349 38.5181C12.7327 38.5068 12.8261 38.4707 12.9061 38.4133L14.5044 37.2617C14.6622 37.3117 14.8208 37.3606 14.9805 37.4066L15.6703 39.251C15.7047 39.3433 15.7621 39.4252 15.8372 39.489C15.9122 39.5528 16.0024 39.5962 16.0991 39.6152C16.1956 39.6347 16.2955 39.629 16.3892 39.5987C16.4829 39.5685 16.5673 39.5146 16.6342 39.4424L17.9806 37.9989C18.1431 38.0177 18.3066 38.0333 18.4702 38.0478L19.5097 39.7272C19.5615 39.8108 19.6339 39.8797 19.7198 39.9276C19.8057 39.9754 19.9024 40.0006 20.0008 40.0006C20.0992 40.0006 20.196 39.9755 20.2819 39.9276C20.3679 39.8798 20.4403 39.8108 20.4922 39.7272L21.5317 38.0478C21.6953 38.0333 21.8586 38.0177 22.0209 37.9989L23.367 39.4424C23.434 39.5146 23.5183 39.5684 23.612 39.5986C23.7056 39.6289 23.8055 39.6346 23.902 39.6152C23.9987 39.5961 24.0888 39.5527 24.1638 39.4889C24.2389 39.4251 24.2964 39.3432 24.3308 39.251L25.0206 37.4066C25.1803 37.3606 25.3391 37.3117 25.4969 37.2617L27.0955 38.4133C27.1754 38.4708 27.2688 38.5069 27.3666 38.5182C27.4645 38.5295 27.5636 38.5156 27.6545 38.4779C27.7455 38.4401 27.8253 38.3797 27.8864 38.3025C27.9475 38.2252 27.9878 38.1336 28.0036 38.0364L28.3208 36.0919C28.4675 36.0158 28.6127 35.9367 28.7575 35.8575L30.5514 36.675C30.6409 36.7161 30.7395 36.7336 30.8377 36.7258C30.9359 36.718 31.0305 36.6852 31.1124 36.6305C31.1944 36.5758 31.2609 36.501 31.3058 36.4133C31.3506 36.3256 31.3722 36.2278 31.3686 36.1294L31.2998 34.1547C31.4277 34.053 31.5539 33.9493 31.6784 33.8436L33.6012 34.2964C33.7966 34.3424 34.0013 34.2855 34.1423 34.1428C34.2121 34.0734 34.2629 33.9873 34.2899 33.8927C34.3168 33.7981 34.3191 33.6981 34.2964 33.6024L33.8436 31.6789C33.9491 31.5539 34.053 31.4281 34.1545 31.2999L36.1289 31.3689C36.2273 31.3726 36.325 31.351 36.4127 31.3062C36.5003 31.2613 36.575 31.1947 36.6295 31.1127C36.6845 31.0308 36.7175 30.9362 36.7254 30.8379C36.7333 30.7397 36.7158 30.641 36.6747 30.5514L35.8572 28.758C35.937 28.6131 36.0155 28.4678 36.0911 28.3205L38.0364 28.0039C38.1337 27.9883 38.2253 27.948 38.3025 27.8868C38.3797 27.8256 38.4399 27.7457 38.4773 27.6545C38.5151 27.5636 38.5289 27.4645 38.5175 27.3667C38.5062 27.269 38.47 27.1757 38.4125 27.0958L37.2617 25.4974C37.3114 25.3394 37.36 25.1808 37.4062 25.0211L39.2509 24.3313C39.3433 24.2969 39.4253 24.2394 39.489 24.1644C39.5528 24.0893 39.5962 23.999 39.6152 23.9024C39.6346 23.8059 39.6289 23.706 39.5987 23.6123C39.5684 23.5186 39.5146 23.4343 39.4423 23.3674L37.9994 22.021C38.0169 21.8585 38.033 21.695 38.047 21.5319L39.7264 20.4922C39.8101 20.4405 39.8792 20.3682 39.9271 20.2823C39.975 20.1963 40.0001 20.0995 40 20.0011C40 19.801 39.8969 19.6149 39.7267 19.5097ZM28.4873 33.4403C27.8461 33.3021 27.4383 32.67 27.5759 32.0267C27.7131 31.3842 28.3447 30.9753 28.9858 31.1136C29.627 31.251 30.0355 31.8841 29.898 32.5261C29.7605 33.1683 29.1283 33.5777 28.4873 33.4403ZM27.9167 29.5811C27.7776 29.5513 27.6339 29.5492 27.4939 29.5749C27.354 29.6006 27.2205 29.6537 27.101 29.7311C26.9816 29.8085 26.8786 29.9086 26.7979 30.0258C26.7172 30.1431 26.6604 30.275 26.6308 30.4142L26.0345 33.1966C24.1947 34.0316 22.1517 34.4955 20 34.4955C17.7991 34.4955 15.7116 34.0086 13.8391 33.138L13.2431 30.3558C13.1178 29.7703 12.5422 29.3974 11.9575 29.523L9.50125 30.0505C9.04475 29.5806 8.62046 29.0805 8.23125 28.5536H20.1828C20.318 28.5536 20.4081 28.5291 20.4081 28.406V24.1783C20.4081 24.0553 20.318 24.0308 20.1827 24.0308H16.6875V21.3511H20.468C20.813 21.3511 22.3131 21.4495 22.7927 23.3671C22.943 23.9567 23.2727 25.8749 23.4983 26.4889C23.723 27.1777 24.6378 28.5535 25.6128 28.5535H31.5683C31.6359 28.5535 31.7081 28.5458 31.7842 28.532C31.371 29.0932 30.9184 29.6243 30.4297 30.1211L27.9167 29.5811ZM11.387 33.3822C10.7456 33.5206 10.1142 33.1117 9.97625 32.4692C9.83906 31.8256 10.2469 31.1939 10.8881 31.0556C11.1964 30.9898 11.5182 31.0491 11.7827 31.2205C12.0473 31.392 12.2329 31.6614 12.2987 31.9697C12.4359 32.6119 12.028 33.2447 11.387 33.3822ZM6.85313 14.9978C7.11922 15.5981 6.84844 16.3017 6.24891 16.5674C5.64937 16.8338 4.94766 16.5627 4.68172 15.9619C4.55388 15.6736 4.54571 15.3464 4.65901 15.0521C4.7723 14.7578 4.99779 14.5205 5.28594 14.3924C5.42857 14.3291 5.58228 14.2946 5.73826 14.2908C5.89425 14.287 6.04946 14.3139 6.19501 14.3701C6.34056 14.4264 6.47361 14.5107 6.58653 14.6184C6.69946 14.7261 6.79005 14.8551 6.85313 14.9978ZM5.45969 18.301L8.01844 17.1639C8.28111 17.0471 8.48665 16.8307 8.5899 16.5624C8.69315 16.2941 8.68565 15.9958 8.56906 15.733L8.04219 14.5414H10.1147V23.8833H5.93328C5.56263 22.5785 5.37511 21.2285 5.37609 19.872C5.37609 19.3411 5.40469 18.8166 5.45969 18.301ZM16.6881 17.3936V14.64H21.6234C21.8784 14.64 23.4234 14.9347 23.4234 16.09C23.4234 17.0492 22.2384 17.3931 21.2639 17.3931H16.6881V17.3936ZM34.6244 19.872C34.6244 20.2374 34.6109 20.5989 34.5842 20.9577H33.0837C32.9336 20.9577 32.8731 21.0564 32.8731 21.2035V21.8925C32.8731 23.5144 31.9586 23.8672 31.1572 23.9571C30.3941 24.043 29.5478 23.6375 29.4436 23.1705C28.9933 20.6383 28.2431 20.0975 27.0584 19.163C28.5287 18.2294 30.0584 16.852 30.0584 15.0083C30.0584 13.0177 28.6938 11.7638 27.7634 11.1489C26.4584 10.2886 25.0134 10.1161 24.6236 10.1161H9.10609C11.2103 7.76767 14.0622 6.10408 17.2877 5.49877L19.1167 7.41752C19.2148 7.52051 19.3323 7.60314 19.4624 7.66067C19.5925 7.7182 19.7327 7.7495 19.8749 7.75278C20.0172 7.75606 20.1586 7.73125 20.2913 7.67978C20.4239 7.62831 20.545 7.55119 20.6478 7.45283L22.6944 5.49533C26.9827 6.29377 30.6134 8.96314 32.7058 12.6255L31.3047 15.79C31.0628 16.3377 31.3097 16.9781 31.8558 17.2208L34.5533 18.4189C34.5998 18.8978 34.6244 19.3816 34.6244 19.872ZM19.1175 3.86642C19.5914 3.41252 20.3431 3.43049 20.7969 3.90502C21.2497 4.38096 21.2325 5.13346 20.7575 5.58705C20.2836 6.04111 19.5319 6.02346 19.0781 5.54799C18.8607 5.3196 18.7428 5.0143 18.7501 4.69906C18.7575 4.38382 18.8896 4.08438 19.1175 3.86642ZM33.0211 15.0555C33.0841 14.9128 33.1747 14.7839 33.2876 14.6762C33.4005 14.5686 33.5335 14.4842 33.6791 14.428C33.8246 14.3719 33.9798 14.3449 34.1357 14.3488C34.2917 14.3526 34.4454 14.3872 34.588 14.4505C35.1877 14.7164 35.4583 15.4197 35.1922 16.02C35.1292 16.1628 35.0386 16.2917 34.9257 16.3995C34.8128 16.5072 34.6798 16.5916 34.5342 16.6478C34.3886 16.7041 34.2334 16.731 34.0774 16.7272C33.9214 16.7234 33.7676 16.6888 33.625 16.6255C33.0261 16.3594 32.7555 15.6567 33.0211 15.0555Z" fill="black"/>
</g>
<defs>
<clipPath id="clip0_32_175">
<rect width="40" height="40" fill="white"/>
</clipPath>
</defs>
</svg>
