<svg width="40" height="40" viewBox="0 0 40 40" fill="none" xmlns="http://www.w3.org/2000/svg">
<path d="M7.5 18.75C7.83152 18.75 8.14946 18.6183 8.38388 18.3839C8.6183 18.1495 8.75 17.8315 8.75 17.5V6.25H22.5V13.75C22.5 14.0815 22.6317 14.3995 22.8661 14.6339C23.1005 14.8683 23.4185 15 23.75 15H31.25V17.5C31.25 17.8315 31.3817 18.1495 31.6161 18.3839C31.8505 18.6183 32.1685 18.75 32.5 18.75C32.8315 18.75 33.1495 18.6183 33.3839 18.3839C33.6183 18.1495 33.75 17.8315 33.75 17.5V13.75C33.7501 13.5858 33.7179 13.4232 33.6552 13.2714C33.5924 13.1197 33.5004 12.9818 33.3844 12.8656L24.6344 4.11563C24.5182 3.99958 24.3803 3.90756 24.2286 3.84483C24.0768 3.78209 23.9142 3.74987 23.75 3.75H8.75C8.08696 3.75 7.45107 4.01339 6.98223 4.48223C6.51339 4.95107 6.25 5.58696 6.25 6.25V17.5C6.25 17.8315 6.3817 18.1495 6.61612 18.3839C6.85054 18.6183 7.16848 18.75 7.5 18.75ZM25 8.01719L29.4828 12.5H25V8.01719ZM35.625 32.5C35.625 32.8315 35.4933 33.1495 35.2589 33.3839C35.0245 33.6183 34.7065 33.75 34.375 33.75H30C29.6685 33.75 29.3505 33.6183 29.1161 33.3839C28.8817 33.1495 28.75 32.8315 28.75 32.5V23.75C28.75 23.4185 28.8817 23.1005 29.1161 22.8661C29.3505 22.6317 29.6685 22.5 30 22.5C30.3315 22.5 30.6495 22.6317 30.8839 22.8661C31.1183 23.1005 31.25 23.4185 31.25 23.75V31.25H34.375C34.7065 31.25 35.0245 31.3817 35.2589 31.6161C35.4933 31.8505 35.625 32.1685 35.625 32.5ZM14.3469 30.6734C14.2982 31.1515 14.1441 31.6129 13.8958 32.0243C13.6476 32.4358 13.3112 32.7872 12.9109 33.0531C12.1 33.5937 11.0938 33.75 10.1781 33.75C9.37957 33.7458 8.58475 33.6408 7.8125 33.4375C7.497 33.3451 7.23061 33.1321 7.07101 32.8447C6.91142 32.5573 6.87148 32.2186 6.95984 31.9019C7.04819 31.5853 7.25774 31.3162 7.54309 31.1529C7.82844 30.9897 8.16662 30.9454 8.48438 31.0297C9.16875 31.2172 10.8203 31.4516 11.5391 30.9734C11.6781 30.8812 11.825 30.7359 11.8734 30.3594C11.9281 29.9422 11.7625 29.7188 9.87656 29.1734C8.41562 28.7516 5.97031 28.0438 6.28281 25.5625C6.33145 25.0938 6.48265 24.6416 6.72568 24.2379C6.96871 23.8342 7.29762 23.4889 7.68906 23.2266C9.53906 21.9766 12.4891 22.7094 12.8188 22.7953C12.9776 22.8372 13.1266 22.9099 13.2573 23.0093C13.388 23.1088 13.4978 23.233 13.5805 23.3749C13.6632 23.5168 13.7172 23.6736 13.7393 23.8364C13.7614 23.9991 13.7512 24.1646 13.7094 24.3234C13.6675 24.4823 13.5948 24.6313 13.4953 24.762C13.3959 24.8927 13.2717 25.0025 13.1298 25.0852C12.9879 25.1679 12.8311 25.2219 12.6683 25.244C12.5056 25.2661 12.3401 25.2559 12.1812 25.2141C11.4797 25.0312 9.80312 24.8141 9.08437 25.3016C8.99016 25.3651 8.9126 25.4504 8.85821 25.5502C8.80383 25.65 8.77422 25.7614 8.77187 25.875C8.75312 26.0156 8.75 26.0438 8.94687 26.1719C9.30781 26.4047 9.95312 26.5906 10.5797 26.7719C12.1094 27.2141 14.6969 27.9688 14.3469 30.6734ZM25.4406 31.1781C25.9737 30.2491 26.2529 29.1961 26.25 28.125C26.25 25.0234 24.0078 22.5 21.25 22.5C18.4922 22.5 16.25 25.0234 16.25 28.125C16.25 31.2266 18.4922 33.75 21.25 33.75C22.133 33.7469 22.996 33.4874 23.7344 33.0031L24.1156 33.3844C24.3502 33.6187 24.6682 33.7503 24.9998 33.7501C25.3313 33.75 25.6493 33.6181 25.8836 33.3836C26.1179 33.149 26.2495 32.831 26.2494 32.4994C26.2492 32.1679 26.1174 31.85 25.8828 31.6156L25.4406 31.1781ZM21.25 31.25C19.8719 31.25 18.75 29.8438 18.75 28.125C18.75 26.4062 19.8719 25 21.25 25C22.6281 25 23.75 26.4062 23.75 28.125C23.7502 28.5234 23.688 28.9193 23.5656 29.2984L23.3828 29.1156C23.2667 28.9996 23.1288 28.9076 22.9771 28.8448C22.8254 28.782 22.6628 28.7498 22.4987 28.7499C22.1671 28.75 21.8492 28.8819 21.6148 29.1164C21.3805 29.351 21.2489 29.669 21.2491 30.0006C21.2492 30.3321 21.3811 30.65 21.6156 30.8844L21.8781 31.1453C21.6756 31.2132 21.4636 31.2485 21.25 31.25Z" fill="black"/>
</svg>
