<svg width="41" height="40" viewBox="0 0 41 40" fill="none" xmlns="http://www.w3.org/2000/svg">
<g clip-path="url(#clip0_32_247)">
<path d="M31.3577 0H10.1077C4.93006 0 0.732727 4.19733 0.732727 9.375V30.625C0.732727 35.8027 4.93006 40 10.1077 40H31.3577C36.5354 40 40.7327 35.8027 40.7327 30.625V9.375C40.7327 4.19733 36.5354 0 31.3577 0Z" fill="#242938"/>
<path fill-rule="evenodd" clip-rule="evenodd" d="M13.7015 17.1875C14.639 13.4375 16.9829 11.5625 20.7327 11.5625C26.3577 11.5625 27.0609 15.7812 29.8734 16.4844C31.7485 16.9533 33.389 16.2502 34.7952 14.375C33.8579 18.1248 31.5138 20 27.764 20C22.139 20 21.4359 15.7812 18.6234 15.0781C16.7482 14.6094 15.1077 15.3125 13.7015 17.1875ZM6.67023 25.625C7.60773 21.8752 9.95148 20 13.7015 20C19.3265 20 20.0296 24.2188 22.8421 24.9219C24.7173 25.3908 26.3577 24.6877 27.764 22.8125C26.8266 26.5623 24.4826 28.4375 20.7327 28.4375C15.1077 28.4375 14.4046 24.2188 11.5921 23.5156C9.7171 23.0467 8.07648 23.7498 6.67023 25.625Z" fill="url(#paint0_linear_32_247)"/>
</g>
<defs>
<linearGradient id="paint0_linear_32_247" x1="14.2484" y1="11.5625" x2="26.2796" y2="28.9844" gradientUnits="userSpaceOnUse">
<stop stop-color="#32B1C1"/>
<stop offset="1" stop-color="#14C6B7"/>
</linearGradient>
<clipPath id="clip0_32_247">
<rect width="40" height="40" fill="white" transform="translate(0.732727)"/>
</clipPath>
</defs>
</svg>
